<?xml version="1.0" encoding="UTF-8" standalone="no"?>
<svg
   version="1.1"
   style="display:block"
   viewBox="0 0 2048 2047.9999"
   width="1024"
   height="1023.9999"
   id="svg25"
   xmlns="http://www.w3.org/2000/svg"
   xmlns:svg="http://www.w3.org/2000/svg">
  <defs
     id="defs25" />
  <metadata
     id="metadata1"><![CDATA[
            {
  "prompt": {
    "1": {
      "inputs": {
        "image": [
          "4",
          0
        ]
      },
      "class_type": "RecraftVectorizeImageNode",
      "_meta": {
        "title": "Recraft Vectorize Image"
      }
    },
    "2": {
      "inputs": {
        "image": "pasted/image (6).png"
      },
      "class_type": "LoadImage",
      "_meta": {
        "title": "Load Image"
      },
      "is_changed": [
        "1fe18bbe92105210d99677b098a2100266a1088ef8fcc349406289b98a3a543e"
      ]
    },
    "3": {
      "inputs": {
        "filename_prefix": "svg/ComfyUI",
        "svg": [
          "1",
          0
        ]
      },
      "class_type": "SaveSVGNode",
      "_meta": {
        "title": "SaveSVGNode"
      }
    },
    "4": {
      "inputs": {
        "prompt": "remove the red stars",
        "aspect_ratio": "1:1",
        "guidance": 3.0,
        "steps": 50,
        "seed": 1234,
        "prompt_upsampling": false,
        "input_image": [
          "2",
          0
        ]
      },
      "class_type": "FluxKontextProImageNode",
      "_meta": {
        "title": "Flux.1 Kontext [pro] Image"
      }
    }
  },
  "workflow": {
    "id": "5942b087-6abb-4c1f-bc54-bdec32603369",
    "revision": 0,
    "last_node_id": 4,
    "last_link_id": 5,
    "nodes": [
      {
        "id": 3,
        "type": "SaveSVGNode",
        "pos": [
          1063.5909423828125,
          3842.5
        ],
        "size": [
          270,
          270
        ],
        "flags": {},
        "order": 3,
        "mode": 0,
        "inputs": [
          {
            "name": "svg",
            "type": "SVG",
            "link": 2
          }
        ],
        "outputs": [],
        "properties": {
          "cnr_id": "comfy-core",
          "ver": "0.3.40",
          "Node name for S&R": "SaveSVGNode"
        },
        "widgets_values": [
          "svg/ComfyUI"
        ]
      },
      {
        "id": 2,
        "type": "LoadImage",
        "pos": [
          -178.0132293701172,
          3798.274658203125
        ],
        "size": [
          274,
          314
        ],
        "flags": {},
        "order": 0,
        "mode": 0,
        "inputs": [],
        "outputs": [
          {
            "name": "IMAGE",
            "type": "IMAGE",
            "links": [
              4
            ]
          },
          {
            "name": "MASK",
            "type": "MASK",
            "links": null
          }
        ],
        "properties": {
          "cnr_id": "comfy-core",
          "ver": "0.3.40",
          "Node name for S&R": "LoadImage"
        },
        "widgets_values": [
          "pasted/image (6).png",
          "image"
        ]
      },
      {
        "id": 1,
        "type": "RecraftVectorizeImageNode",
        "pos": [
          642.3521728515625,
          3779.48046875
        ],
        "size": [
          189.64073181152344,
          26
        ],
        "flags": {},
        "order": 2,
        "mode": 0,
        "inputs": [
          {
            "name": "image",
            "type": "IMAGE",
            "link": 5
          }
        ],
        "outputs": [
          {
            "name": "SVG",
            "type": "SVG",
            "links": [
              2
            ]
          }
        ],
        "properties": {
          "cnr_id": "comfy-core",
          "ver": "0.3.40",
          "Node name for S&R": "RecraftVectorizeImageNode"
        },
        "color": "#432",
        "bgcolor": "#653"
      },
      {
        "id": 4,
        "type": "FluxKontextProImageNode",
        "pos": [
          143.72036743164062,
          3751.839599609375
        ],
        "size": [
          400,
          232
        ],
        "flags": {},
        "order": 1,
        "mode": 0,
        "inputs": [
          {
            "name": "input_image",
            "shape": 7,
            "type": "IMAGE",
            "link": 4
          }
        ],
        "outputs": [
          {
            "name": "IMAGE",
            "type": "IMAGE",
            "links": [
              5
            ]
          }
        ],
        "properties": {
          "cnr_id": "comfy-core",
          "ver": "0.3.40",
          "Node name for S&R": "FluxKontextProImageNode"
        },
        "widgets_values": [
          "remove the red stars",
          "1:1",
          3,
          50,
          1234,
          "randomize",
          false
        ],
        "color": "#432",
        "bgcolor": "#653"
      }
    ],
    "links": [
      [
        2,
        1,
        0,
        3,
        0,
        "SVG"
      ],
      [
        4,
        2,
        0,
        4,
        0,
        "IMAGE"
      ],
      [
        5,
        4,
        0,
        1,
        0,
        "IMAGE"
      ]
    ],
    "groups": [],
    "config": {},
    "extra": {
      "ds": {
        "scale": 0.8140274938683989,
        "offset": [
          116.7130637607126,
          -3577.3984812919743
        ]
      },
      "frontendVersion": "1.21.7",
      "VHS_latentpreview": false,
      "VHS_latentpreviewrate": 0,
      "VHS_MetadataImage": true,
      "VHS_KeepIntermediate": true
    },
    "version": 0.4
  }
}
                ]]></metadata>
  <path
     fill="#fbdcaa"
     d="M 5.390625e-5,1.1827774e-5 H 2048.0001 V 2048 h -5.97 -60.11 -917.18 -67.59705 -141.174 -71.306 -304.57 -71.827 H 26.430754 5.3906249e-5 v -166.8 z"
     id="path1"
     style="opacity:0" />
  <path
     fill="#05645b"
     d="m 446.33205,778.76504 c 23.031,-6.892 47.033,-11.395 70.607,-15.998 40.594,-8.127 81.452,-14.871 122.504,-20.22 281.261,-38.065 566.82705,-30.434 845.64705,22.599 28.57,5.72 56.97,11.53 85.36,18.105 13.94,3.229 28.89,5.684 42.01,11.469 4.16,12.763 9.45,25.069 13.39,37.94 11.77,38.484 20.03,77.392 27.66,116.853 21.65,111.96696 24.23,220.88696 -18.6,328.50696 -7.12,17.89 -15.8,35.11 -24.53,52.25 -11.62,22.82 -25.4,44.92 -39.96,66 -5.89,8.52 -13.38,16.64 -18.57,25.56 -2.01,3.44 -3.33,6.56 -2.58,10.58 2.03,3.58 4.06,4.78 7.81,6.43 12.78,5.63 26.95,8.9 40.13,13.6 27.83,9.92 53.24,22.73 78.4,38.19 156.44,96.09 251.25,266.77 289.32,442.62 6.76,29.92 11.69,60.22 14.78,90.73 0.81,7.94 2.11,16.06 2.21,24.02 h -917.18 -67.59705 -141.174 -71.306 -304.57 -71.827 -381.835296 c 8.5415,-49.81 16.0468,-99.34 30.308,-147.95 44.651296,-152.21 145.469296,-305.84 275.497296,-398.04 24.976,-17.71 56.424,-37.72 84.501,-49.72 21.69,-9.27 45.399,-16.05 66.351,-26.56 -0.114,-0.31 -0.221,-0.63 -0.342,-0.94 -5.791,-14.82 -21.99,-32.17 -30.887,-46.29 -17.251,-27.37 -31.69,-55.44 -44.716,-85.07 -6.804,-15.48 -11.93,-31.8 -16.662,-48.01 -35.314,-120.98 -18.159,-250.94096 18.605,-369.51296 7.631,-24.612 15.775,-49.604 25.679,-73.395 3.347,-8.041 7.013,-16.308 11.567,-23.747 z"
     id="path2" />
  <path
     fill="#14110f"
     d="m 408.26605,2048 c 26.199,-59.17 109.524,-110.13 160.342,-149.94 29.472,-23.09 59.42,-48.74 82.448,-78.46 37.238,-48.05 53.921,-104.25 74.306,-160.48 7.497,-20.68 16.315,-41.23 25.139,-61.38 16.03,-36.61 37.98,-70.52 53.761,-107.24 29.932,-69.65 51.383,-154.13 63.165,-228.97 7.715,-49.01 7.871,-111.05 27.376,-155.3 10.429,-23.66 28.921,-41.45 53.018,-50.89 21.126,-8.27 43.986,-7.09 64.57905,2.15 25.32,11.35 40.84,31.56 50.31,57.08 21.86,58.91 7.24,164.15 6.26,227.51 25.54,-3.69 50.85,-4.89 76.29,-10.13 73.15,-15.08 129.08,-49.74 179.6,-103.89 10.65,-11.41 21.42,-22.79 30.79,-35.3 2.93,-3.92 5.83,-7.88 8.68,-11.86 -7.31,-4.28 -14.5,-8.5 -16.69,-17.37 -1.93,-7.83 -0.58,-17.85 3.97,-24.57 4.6,-6.8 12.28,-10.04 20.13,-11.41 30.24,-5.27 60.92,14.67 84.27,31.64 8.91,6.47 17.62,14.33 19.51,25.74 1.24,7.46 -1.07,15.89 -5.64,21.88 -4.87,6.38 -12.52,9.85 -20.37,10.78 -10.28,1.21 -19.12,-1.71 -28.27,-5.94 -18.85,23.75 -35.99,47.86 -56.9,70.01 -65.5,69.39 -150.63,106.05 -244.42,116.8 -18.17,2.08 -36.27,3.78 -54.57,3.78 -0.24,4.35 -0.31,8.79 -0.95,13.1 39.94,1.67 72.88,9.46 100.99,40.16 12.23,13.35 20.26,28.25 26.73,45.02 28.83,-17.41 62.17,-32.82 96.52,-24.4 22.78,5.58 40.95,19.1 53,39.15 16.22,26.98 14.75,60.24 7.29,89.85 -6.65,26.36 -18.54,50.7 -32.16,74.08 -28.63,49.18 -64.48,93.11 -95.98,140.3 -14.49,21.71 -27.71,44.26 -41.99,66.12 -26.61,40.23 -54.01,79.94 -82.19,119.09 -10.03,13.9 -19.55,31.51 -31.87,43.29 h -67.59705 -141.174 -71.306 -304.57 z"
     id="path3" />
  <path
     fill="#05645b"
     d="m 480.09305,2048 c 21.751,-27.13 55.979,-50.26 83.71,-70.95 45.769,-34.15 93.32,-69.45 130.234,-113.38 98.131,-116.78 70.088,-276.02 224.843,-356.73 35.991,-19.15 75.268,-31.35 115.78005,-35.96 26.88,-2.87 59.82,-0.03 81.49,18.01 25,20.81 33.05,64.77 35.19,95.5 2.17,31.25 0.11,61.73 -17.22,88.71 -1.44,-11.52 -1.47,-23.17 -3,-34.65 -3.78,-28.29 -15.12,-58.24 -38.08,-76.29 -22.5,-17.68 -55.25,-23.99 -83.32,-20.19 -25.17005,3.41 -82.39305,16.33 -97.53005,36.85 -4.323,5.86 -5.686,15.66 -4.33,22.69 1.072,5.31 4.264,9.96 8.839,12.86 8.088,5.12 18.465,3.59 27.239,1.32 28.064,-7.24 77.95205,-27.92 105.43205,-11.82 13.49,7.9 18.34,23.24 21.66,37.53 7.07,30.41 9.19,83.17 -7.51,110.86 -7.69,12.75 -20.42,24.35 -35.18,27.62 -5.86,1.29 -12.02,1.15 -17.97,0.85 3.85,-19.11 13.99,-65.88 3.58,-81.89 -3.88,-5.97 -10.02,-9.48 -16.97005,-10.65 -7.58,-1.28 -14.887,1.74 -20.834,6.28 -25.128,19.23 -23.38,68.79 -28.245,97.87 -3.404,20.34 -7.861,39.99 -15.181,59.34 -30.985,81.9 -114.563,118.24 -147.109,194.06 l -0.948,2.16 z"
     id="path4" />
  <path
     fill="#05645b"
     d="m 1209.1901,1557.54 c 15.08,-13.82 37.08,-28.3 58.37,-27.59 7.13,0.24 14.2,2.19 19.21,7.53 7.6,8.12 8.59,20.93 7.92,31.54 -1.51,23.61 -11.28,45.99 -22.2,66.66 -27.12,51.34 -64.5,97.34 -97.68,144.85 -19.72,28.21 -37.64,57.8 -56.75,86.45 -20.35,30.5 -42.05,60.15 -62.74,90.45 -15.37,22.5 -31.08,44.83 -45.28,68.09 -4.37,7.15 -9.68,14.8 -12.89705,22.48 h -141.174 c 15.814,-21.45 34.436,-37.67 53.196,-56.33 45.551,-45.29 74.084,-89.07 91.12505,-151.67 32.48,3.16 64.14,-8.54 89.08,-29.27 19.92,-16.56 28.53,-33.26 41.23,-54.98 37.73,-21.4 61.04,-53.79 72.48,-95.53 9.46,-34.53 7.29,-67.49 6.11,-102.68 z"
     id="path5" />
  <path
     fill="#05645b"
     d="m 976.38105,1109.23 c 1.222,-0.1 1.172,-0.12 2.629,-0.09 8.416,0.16 16.174,3.14 21.85005,9.46 6.52,7.27 9.93,17.86 11.49,27.38 3.02,18.51 1.93,38.35 1.79,57.09 -0.5,71.35 -9.26,142.28 -13.25,213.46 -9.53005,2.55 -19.21805,4.32 -28.70305,7.15 -20.646,6.14 -40.713,14.26 -60.444,22.84 -9.945,4.46 -19.68,9.45 -29.468,14.24 7.975,-23.35 13.823,-47.97 19.848,-71.9 11.656,-46.31 22.387,-92.93 28.779,-140.29 1.974,-14.62 4.062,-29.25 5.309,-43.96 1.519,-17.92 2.079,-36.38 5.415,-54.06 1.72,-9.11 4.383,-18.92 9.693,-26.63 6.233,-9.05 14.512,-12.92 25.062,-14.69 z"
     id="path6" />
  <path
     fill="#14110f"
     d="m 1304.6901,826.44204 c 19.11,-1.098 70.51,5.339 86.44,16.357 6.99,4.834 12.02,12.24 13.29,20.708 1.18,7.753 -0.8,16.048 -5.55,22.316 -15.48,20.42 -51.78,6.932 -73.42,5.285 -14.31,-1.089 -29.23,-0.333 -43.42,1.752 -57.8,8.496 -104.44,45.368 -138.27,91.097 l 1.13,-0.745 c 26.23,-16.986 70.44,-30.402 101.74,-32.368 23.34,-1.467 50.76,1.375 73.64,6.278 22.8,4.887 59.13,12.974 72.19,34.138 5.62,9.08996 5.53,18.47996 2.93,28.53996 -1.17,2.63 -2.48,5.24 -4.31,7.48 -20.37,24.98 -54.19,1.14 -77.48,-5.54 -14.09,-4.04 -29.06,-5.76 -43.66,-6.4 -37.64,-1.65 -72.75,6.56 -106.48,22.98 -15.42,7.5 -30.86,17.08 -48.34,18.5 -13.27,1.08 -26.39,-2.04 -36.57,-10.98 -8.26,-7.26 -11.64,-17.44 -12.22,-28.16 -1.89,-34.48396 25.72,-72.60296 47.59,-96.89696 49.22,-54.689 116.79,-90.346 190.77,-94.341 z"
     id="path7" />
  <path
     fill="#14110f"
     d="m 744.45705,921.14604 c 12.767,-0.881 25.038,-0.01 36.507,6.364 20.058,11.142 33.753,35.219 39.65,56.714 9.013,32.85596 4.979,70.25596 -12.239,99.76596 -10.563,18.1 -24.891,32.3 -45.585,37.72 -14.473,2.1 -28.025,0.58 -40.882,-7.04 -21.124,-12.52 -32.649,-36.86 -38.069,-59.92 -7.616,-32.41 -4.541,-69.35796 13.487,-97.86496 11.213,-17.73 26.406,-31.003 47.131,-35.739 z"
     id="path8" />
  <path
     fill="#14110f"
     d="m 699.49705,795.43604 c 30.305,-0.114 60.274,6.339 87.846,18.915 25.131,11.75 58.014,32.039 67.39,60.005 2.742,8.18 3.169,17.38 -0.951,25.19 -2.914,5.524 -7.438,8.36 -13.296,10.207 -20.287,6.397 -35.927,-11.893 -50.681,-22.7 -7.084,-5.19 -14.729,-9.107 -22.584,-12.982 -2.733,-1.487 -5.602,-2.728 -8.456,-3.962 -32.342,-13.989 -70.906,-16.343 -104.411,-5.006 -8.818,2.984 -16.797,8.231 -25.507,11.455 -7.614,2.818 -16.839,3.549 -24.306,-0.17 -8.536,-4.251 -11.293,-13.08 -14.232,-21.395 2.668,-8.67 5.522,-15.538 11.658,-22.445 22.424,-25.237 65.348,-35.124 97.53,-37.112 z"
     id="path9" />
  <path
     fill="#14110f"
     d="m 322.16205,982.88404 c -55.236,-15.067 -142.01,-43.415 -172.024,-95.013 -7.029,-12.083 -10.144,-28.319 -6.218,-42.009 2.83,-9.87 8.845,-19.537 14.805,-27.799 22.378,-31.013 49.849,-59.176 75.575,-87.458 l 120.333,-130.994 c 10.588,-11.433 22.843,-22.067 32.375,-34.374 11.287,-14.571 22.511,-54.044 29.16,-72.753 20.43,-57.49203 39.882,-115.33903 60.738,-172.68003 11.498,-31.614 21.082,-71.8 41.663,-98.567 22.032,-28.655 57.227,-49.69 88.996,-66.263 169.938,-88.651498 405.09505,-107.297398 592.13505,-76.899998 47.85,8.0158 95.03,19.542 141.19,34.484998 63.03,19.844 182.01,69.96 213.45,130.458 12.61,24.266 20.46,52.462 29.63,78.301 19.84,55.834 38.97,111.916 57.4,168.23103 7.45,22.296 16.3,56.167 27.22,76.295 8.31,15.315 42.11,51.482 54.87,66.246 l 117.33,135.757 c 21.84,25.51 45.63,50.949 64.45,78.813 12.25,18.153 18.1,36.764 11.22,58.295 -10.52,32.922 -46.4,54.465 -75.44,69.11 -32.72,16.499 -80.59,33.78496 -117.12,37.66496 18.31,153.12 -8.49,261.56 -87.27,393.09 27.31,13.17 54.43,26.11 79.95,42.56 132.8,85.57 227.7,222.43 279.45,370.14 26.12,74.27 41.6,151.87 46,230.48 h -60.11 c -0.1,-7.96 -1.4,-16.08 -2.21,-24.02 -3.09,-30.51 -8.02,-60.81 -14.78,-90.73 -38.07,-175.85 -132.88,-346.53 -289.32,-442.62 -25.16,-15.46 -50.57,-28.27 -78.4,-38.19 -13.18,-4.7 -27.35,-7.97 -40.13,-13.6 -3.75,-1.65 -5.78,-2.85 -7.81,-6.43 -0.75,-4.02 0.57,-7.14 2.58,-10.58 5.19,-8.92 12.68,-17.04 18.57,-25.56 14.56,-21.08 28.34,-43.18 39.96,-66 8.73,-17.14 17.41,-34.36 24.53,-52.25 42.83,-107.62 40.25,-216.54 18.6,-328.50696 -7.63,-39.461 -15.89,-78.369 -27.66,-116.853 -3.94,-12.871 -9.23,-25.177 -13.39,-37.94 -13.12,-5.785 -28.07,-8.24 -42.01,-11.469 -28.39,-6.575 -56.79,-12.385 -85.36,-18.105 -278.82,-53.033 -564.38605,-60.664 -845.64705,-22.599 -41.052,5.349 -81.91,12.093 -122.504,20.22 -23.574,4.603 -47.576,9.106 -70.607,15.998 -4.554,7.439 -8.22,15.706 -11.567,23.747 -9.904,23.791 -18.048,48.783 -25.679,73.395 -36.764,118.572 -53.919,248.53296 -18.605,369.51296 4.732,16.21 9.858,32.53 16.662,48.01 13.026,29.63 27.465,57.7 44.716,85.07 8.897,14.12 25.096,31.47 30.887,46.29 0.121,0.31 0.228,0.63 0.342,0.94 -20.952,10.51 -44.661,17.29 -66.351,26.56 -28.077,12 -59.525,32.01 -84.501,49.72 -130.028,92.2 -230.846,245.83 -275.497296,398.04 -14.2612,48.61 -21.7665,98.14 -30.308,147.95 H 5.3906249e-5 V 1881.2 C 0.25115391,1880.67 0.50805391,1880.16 0.75335391,1879.63 6.7757539,1866.74 11.382354,1846.26 16.450454,1832.01 c 9.1891,-25.83 20.8365,-51.41 32.7236,-76.12 70.650996,-146.82 196.378996,-289.57 346.493996,-357.48 -12.258,-13.53 -21.391,-34.35 -29.401,-50.67 -42.579,-86.74 -60.017,-178.99 -55.27,-275.23 1.438,-29.16 5.426,-61.07 11.165,-89.62596 z"
     id="path10" />
  <path
     fill="#d63712"
     d="m 1110.2901,122.83401 c 16.19,0.584 32.52,3.286 48.56,5.48 38.65,5.026 77.03,11.999 114.98,20.89 27.13,6.632 68.54,18.28 93.45,29.842 39.01,16.595 105.3,45.085 131.91,78.095 15.83,21.39 28.83,69.587 38.04,96.603 10.56,30.202 20.73,60.542 30.49,91.01303 6.4,14.289 10.73,29.898 15.59,44.782 6.91,21.15 14.06,42.349 20.51,63.638 -69.56,-23.365 -138.17,-45.076 -210.27,-59.603 -23.96,-4.828 -48.36,-8.55 -72.54,-12.102 -8.03,-1.179 -16.49,-1.638 -24.41,-3.062 -38.43,-4.482 -76.39,-10.397 -115.04,-13.564 -11.6,0.504 -24.47,-1.673 -36.12,-2.554 -17.96,-1.302 -35.94,-2.185 -53.94,-2.649 -71.21,-2.535 -142.49105,-1.757 -213.62505,2.332 16.925,-20.802 30.794,-44.98103 45.958,-67.11503 l 82.34705,-118.452 71.36,-102.441 c 11.23,-16.462 24.34,-33.07 32.75,-51.133 z"
     id="path11" />
  <path
     fill="#05645b"
     d="m 1367.2801,179.04601 c 39.01,16.595 105.3,45.085 131.91,78.095 15.83,21.39 28.83,69.587 38.04,96.603 10.56,30.202 20.73,60.542 30.49,91.01303 6.4,14.289 10.73,29.898 15.59,44.782 6.91,21.15 14.06,42.349 20.51,63.638 -69.56,-23.365 -138.17,-45.076 -210.27,-59.603 -23.96,-4.828 -48.36,-8.55 -72.54,-12.102 -8.03,-1.179 -16.49,-1.638 -24.41,-3.062 10.5,-12.229 20.28,-25.298 30.5,-37.801 12.35,-15.12203 31.19,-34.07503 39.5,-51.07503 1.73,-3.542 1.89,-8.247 2.32,-12.132 -13.79,-22.587 -88.67,-56.414 -90.36,-68.518 -1.4,-10.017 76.81,-112.44 88.72,-129.838 z"
     id="path12" />
  <path
     fill="#e89d1a"
     d="m 1434.7201,332.92901 c 0.49,-3.649 0.99,-7.317 1.69,-10.931 6.95,-35.587 35.42,-46.9 62.78,-64.857 15.83,21.39 28.83,69.587 38.04,96.603 10.56,30.202 20.73,60.542 30.49,91.01303 -19.55,-15.17803 -40.37,-29.64303 -60.67,-43.82703 -20.15,-14.074 -43.56,-29.189 -60,-47.496 -5.62,-6.251 -9.34,-12.659 -12.33,-20.505 z"
     id="path13" />
  <path
     fill="#e89d1a"
     d="m 1149.3501,342.49201 c 0.63,-7.186 2,-13.591 5.55,-19.974 11.47,-20.599 26.86,-40.438 40.44,-59.753 l 55.15,-79.162 c 6.09,-8.604 16.93,-27.772 23.34,-34.399 27.13,6.632 68.54,18.28 93.45,29.842 -11.91,17.398 -90.12,119.821 -88.72,129.838 1.69,12.104 76.57,45.931 90.36,68.518 -0.43,3.885 -0.59,8.59 -2.32,12.132 -8.31,17 -27.15,35.953 -39.5,51.07503 -10.22,12.503 -20,25.572 -30.5,37.801 -38.43,-4.482 -76.39,-10.397 -115.04,-13.564 15.52,-21.49 37.85,-39.97503 49.74,-63.60203 -1.09,-2.35 -2.19,-4.896 -3.9,-6.864 -5.02,-5.775 -13.1,-10.069 -19.64,-13.964 -19.73,-11.751 -42.15,-21.39 -58.41,-37.924 z"
     id="path14" />
  <path
     fill="#e89d1a"
     d="m 873.43905,130.50101 c 16.405,-1.803 32.649,-4.818 49.095,-6.472 47.153,-4.647 94.57605,-5.964 141.91605,-3.939 15.24,0.577 30.69,0.872 45.84,2.744 -8.41,18.063 -21.52,34.671 -32.75,51.133 l -71.36,102.441 -82.34705,118.452 c -15.164,22.134 -29.033,46.31303 -45.958,67.11503 -50.919,3.959 -101.525,7.669 -152.147,14.94 -14.068,2.02 -29.472,3.068 -43.105,6.849 -11.128,2.341 -22.426,3.611 -33.598,5.687 -26.435,5.071 -52.733,10.828 -78.869,17.263 -38.31,9.574 -75.484,22.488 -113.525,32.71 5.625,-13.764 9.963,-28.289 14.834,-42.349 l 22.608,-64.30603 34.75,-100.355 c 7.574,-22.066 17.548,-59.736 29.977,-78.351 26.734,-40.039 152.155,-88.323 200.27,-98.703 9.94,-4.186 21.909,-6.396 32.441,-8.822 27.163,-6.257 54.512,-11.074 81.928,-16.037 z"
     id="path15" />
  <path
     fill="#05645b"
     d="m 873.43905,130.50101 c 16.405,-1.803 32.649,-4.818 49.095,-6.472 47.153,-4.647 94.57605,-5.964 141.91605,-3.939 15.24,0.577 30.69,0.872 45.84,2.744 -8.41,18.063 -21.52,34.671 -32.75,51.133 l -71.36,102.441 -82.34705,118.452 c -15.164,22.134 -29.033,46.31303 -45.958,67.11503 -50.919,3.959 -101.525,7.669 -152.147,14.94 -14.068,2.02 -29.472,3.068 -43.105,6.849 2.936,-25.947 9.027,-52.50503 13.852,-78.22903 1.339,-7.138 2.981,-18.503 7.409,-24.396 14.239,-18.95 82.447,-8.285 109.886,-27.727 10.086,-7.146 17.619,-17.66 22.227,-29.047 8.869,-21.919 12.545,-56.353 16.932,-80.493 6.866,-37.784 14.527,-75.436 20.51,-113.371 z"
     id="path16" />
  <path
     fill="#d63712"
     d="m 494.07305,432.76901 34.75,-100.355 c 7.574,-22.066 17.548,-59.736 29.977,-78.351 26.734,-40.039 152.155,-88.323 200.27,-98.703 -2.031,19.607 -5.769,38.89 -8.727,58.365 -2.194,14.451 -3.425,29.424 -6.721,43.646 -1.036,4.471 -2.426,8.686 -4.786,12.643 -0.319,0.173 -0.636,0.352 -0.957,0.52 -10.227,5.345 -23.345,6.096 -34.658,7.407 -39.079,4.53 -70.604,12.738 -83.833,54.313 -7.865,24.717 -4.519,75.801 -29.678,88.588 -19.874,10.1 -57.648,11.252 -80.094,11.858 -4.906,0.133 -10.754,0.965 -15.543,0.069 z"
     id="path17" />
  <path
     fill="#e89d1a"
     d="m 1253.1901,526.58404 c 122.83,11.142 243.49,39.492 358.44,84.217 9.51,3.788 21.91,4.972 30.5,10.272 9.07,5.599 16.55,16.501 23.42,24.632 5.85,6.926 11.87,13.781 17.34,21.018 13.76,12.864 25.64,27.9 37.96,42.11 26.45,30.49 52.19,61.901 79.55,91.557 -134.02,-55.373 -296.51,-90.036 -439.9,-111.066 -18.67,-2.83 -37.4,-5.241 -56.17,-7.233 -18.67,-1.876 -37.69,-3.037 -56.23,-5.83 -38.37,-2.113 -76.53,-6.442 -114.95,-8.011 41.34,-46.157 78.44,-95.698 120.04,-141.666 z"
     id="path18" />
  <path
     fill="#05645b"
     d="m 1253.1901,526.58404 c 122.83,11.142 243.49,39.492 358.44,84.217 9.51,3.788 21.91,4.972 30.5,10.272 9.07,5.599 16.55,16.501 23.42,24.632 5.85,6.926 11.87,13.781 17.34,21.018 -77.96,-27.794 -156.82,-55.42 -236.75,-76.991 -19.99,-5.396 -40.35,-12.709 -60.92,-15.399 -14.89,-1.948 -31.44,-2.111 -45.21,4.667 -15.36,7.56 -58.56,60.891 -72.54,76.791 -5.89,6.7 -11.98,15.465 -19.37,20.47 -38.37,-2.113 -76.53,-6.442 -114.95,-8.011 41.34,-46.157 78.44,-95.698 120.04,-141.666 z"
     id="path19" />
  <path
     fill="#05645b"
     d="m 551.22105,565.92704 c 25.392,-7.242 51.438,-12.692 77.277,-18.098 88.999,-18.62 177.973,-28.709 268.685,-33.481 5.404,41.843 12.242,51.671 44.207,77.384 11.171,8.986 22.05,18.4 33.402,27.147 19.871,15.311 41.44805,29.156 60.28805,45.683 -19.4,0.764 -38.98505,-0.406 -58.42505,-0.232 -38.581,0.53 -77.151,1.705 -115.693,3.524 -25.803,1.222 -51.451,2.753 -77.203,4.797 -16.197,1.285 -33.511,3.938 -49.697,3.435 -25.448,4.163 -51.289,5.821 -76.856,9.118 -37.434,4.828 -74.645,11.156 -111.947,16.864 -5.051,-6.926 -15.879,-12.303 -23.05,-17.028 -17.86,-11.767 -35.734,-23.633 -54.075,-34.64 -16.777,-10.068 -42.072,-22.531 -55.955,-35.06 6.03,-6.189 12.021,-10.611 19.798,-14.319 14.185,-6.763 31.649,-10.476 46.713,-14.903 23.967,-7.044 48.085,-15.073 72.531,-20.191 z"
     id="path20" />
  <path
     fill="#d63712"
     d="m 412.17905,615.34004 c 6.03,-6.189 12.021,-10.611 19.798,-14.319 14.185,-6.763 31.649,-10.476 46.713,-14.903 23.967,-7.044 48.085,-15.073 72.531,-20.191 18.607,13.261 40.078,23.727 59.835,35.252 38.129,22.495 75.875,45.632 113.222,69.403 3.148,2.025 6.705,3.478 9.784,5.504 -25.448,4.163 -51.289,5.821 -76.856,9.118 -37.434,4.828 -74.645,11.156 -111.947,16.864 -5.051,-6.926 -15.879,-12.303 -23.05,-17.028 -17.86,-11.767 -35.734,-23.633 -54.075,-34.64 -16.777,-10.068 -42.072,-22.531 -55.955,-35.06 z"
     id="path21" />
  <path
     fill="#d63712"
     d="m 897.18305,514.34804 c 94.717,-4.961 189.66705,-3.428 284.16705,4.59 20.1,1.606 53.6,2.929 71.84,7.646 -41.6,45.968 -78.7,95.509 -120.04,141.666 -15.95,0.219 -32.22,-1.052 -48.18,-1.612 -16.58,-0.582 -33.41,-0.462 -49.89,-2.076 -18.84,-16.527 -40.41705,-30.372 -60.28805,-45.683 -11.352,-8.747 -22.231,-18.161 -33.402,-27.147 -31.965,-25.713 -38.803,-35.541 -44.207,-77.384 z"
     id="path22" />
  <path
     fill="#e89d1a"
     d="m 412.17905,615.34004 c 13.883,12.529 39.178,24.992 55.955,35.06 18.341,11.007 36.215,22.873 54.075,34.64 7.171,4.725 17.999,10.102 23.05,17.028 -10.849,1.741 -21.578,4.459 -32.394,6.456 -59.968,10.821 -119.334,24.747 -177.859,41.72 -24.519,7.132 -50.995,14.24 -74.25,24.76 12.812,-13.483 24.972,-27.567 37.633,-41.194 37.229,-40.157 75.165,-79.653 113.79,-118.47 z"
     id="path23" />
  <path
     fill="#d63712"
     d="m 1681.7501,814.75904 c 11.2,2.173 22.3,6.617 33.18,10.037 26.52,8.337 127.72,39.88 141.3,60.295 1.51,2.283 1.89,4.604 1.17,7.255 -3.47,12.829 -23.36,22.338 -34.14,28.58 -32.61,18.496 -71.13,28.748 -107.56,36.667 -5.46,-18.139 -7.79,-37.792 -11.86,-56.344 -6.4,-29.188 -14.18,-57.684 -22.09,-86.49 z"
     id="path24" />
  <path
     fill="#d63712"
     d="m 370.99205,796.24304 c 0.217,5.087 -3.705,13.364 -5.297,18.415 -11.999,38.063 -22.891,76.047 -31.295,115.094 -32.787,-8.988 -64.968,-20.126 -94.657,-36.832 -10.852,-5.822 -31.665,-17.274 -35.253,-29.86 -0.601,-2.11 -0.584,-4.294 0.459,-6.231 11.832,-21.973 137.417,-53.084 166.043,-60.586 z"
     id="path25" />
</svg>
